<svg xmlns="http://www.w3.org/2000/svg" viewBox="0 0 1000 1000">
	<circle r="50%" cx="50%" cy="50%" fill="#ffffff"/>

	<g fill="#f79a00">
		<path d="M782.38 667.41c-.13-13.2-2.6-26.36-7.4-39.5-9.86-26.86-28.19-44.26-54.98-52.2-9-2.7-19.89-3.7-29.79-4-.9-.1-1.7-.9-1.6-1.8 0-.2.04-.4.1-.6.34-.8.57-1.26.7-1.4 11.8-10.7 54.58-53.1 56.88-55.7 19.99-22.4 32.39-47.2 34.39-76.8.54-8 .8-12.33.8-13-.06-33-.06-74.83 0-125.5.1-22.8-2.1-46.5-13.89-66.7-13.39-23-27.39-41.1-49.98-55.3-13.05-8.2-25.29-13.2-36.69-15-11.73-1.93-21.79-2.9-30.19-2.9h-284.69c-8.6 0-18.92.54-30.99 1.6-34.59 2.9-68.27 16.2-91.26 41-17.19 18.47-25.75 42.34-25.69 71.6.07 79.27.1 119.4.1 120.4-.4 38.1 10.1 81.3 49.08 97.7.5.2.7.7.5 1.2-.4.94-1.06 1.74-2 2.4-11.33 7.34-21.12 17.04-29.39 29.1-12.33 17.87-18.45 38.17-18.39 60.9.14 36 .14 68.27 0 96.8-.06 25.47.47 41.34 1.6 47.6 2.94 16.2 8.8 31.14 17.59 44.8 16.19 25.2 39.38 46.9 68.17 56.9 11.14 3.87 21.16 5.8 30.09 5.8 187.12 0 350.86-.2 356.66-.7 8.47-.73 14.26-1.53 17.39-2.4 36.19-10 62.08-35.5 69.97-71.9 1.94-8.66 2.9-15.6 2.9-20.8.2-31.2.2-55.06 0-71.6ZM718.11 756.51c-2 7.7-6 14-13.79 17.9-9.9 4.9-18.89 5.5-31.49 6.6-7.46.6-13.29.9-17.49.9-183.26.07-278.69.1-286.28.1-17.12 0-28.79-.7-34.99-2.1-11.13-2.6-21.75-7.4-31.89-14.4-15.19-10.6-23.99-27.3-27.39-45.4-.86-4.73-1.3-12.53-1.3-23.4.14-65.2.2-98.63.2-100.3.2-14.2 2.1-25.6 9.5-37.6 1.54-2.46 5.97-6.53 13.29-12.2 16.66-12.86 59.05-46.2 127.15-100 1.1-.8 1.3-2.5.4-3.6-.2-.26-.43-.46-.7-.6v-.1c-.2-.06-.56-.1-1.1-.1-15.19 0-54.18.04-116.95.1-7.06 0-11.73-.43-13.99-1.3-9.8-3.9-13.09-16.1-14.99-26-1.66-8.6-2.5-19.03-2.5-31.3-.2-64.13-.23-99.86-.1-107.2.2-12.3 4.1-26.7 13.19-35.3 24.99-23.8 69.67-22.3 101.46-22h236.3c23.69 0 37.88-.6 55.58 6.4 19.89 8 32.79 28.7 37.78 49 2.74 11.2 4 22.44 3.8 33.7-.13 11.47-.13 48.67 0 111.6 0 11.5-.3 33.6-13.79 47.2-17.99 18-79.27 79.4-120.15 118.3-16.69 15.8-30.99 29.5-46.38 41.7-1.4 1.1-2.3 3-1.1 4.8 1.3 1.8 7.2 1.6 8.3 1.6 32.69-.3 142.84-.9 146.54-.8 10.5.4 15.19 6.8 20.19 16.5 2.74 5.27 4.64 11.04 5.7 17.3 4.8 28.3 4.7 61.1-3 90Z"/>
		<path d="M500.2.03C223.81.03.4 223.53.4 500.02s223.41 499.98 499.8 499.98 499.8-223.49 499.8-499.98S776.59.03 500.2.03ZM500.6 925.3c-235.01 0-425.53-190.59-425.53-425.69S265.6 73.93 500.6 73.93s425.63 190.59 425.63 425.69h0s0 0 0 0c0 235.09-190.52 425.69-425.63 425.69Z"/>
	</g>
</svg>